<svg xmlns="http://www.w3.org/2000/svg" xmlns:xlink="http://www.w3.org/1999/xlink" width="54" height="54" viewBox="0 0 54 54">
  <defs>
    <clipPath id="clip-path">
      <rect id="Rectangle_890" data-name="Rectangle 890" width="54.714" height="53.662" transform="translate(-2714.225 226.668)" fill="#761515"/>
    </clipPath>
    <clipPath id="clip-logo-new">
      <rect width="54" height="54"/>
    </clipPath>
  </defs>
  <g id="logo-new" clip-path="url(#clip-logo-new)">
    <rect width="54" height="54" fill="#fff"/>
    <g id="logo" transform="translate(2714.352 -226.353)" clip-path="url(#clip-path)">
      <g id="logo-totalcare" transform="translate(-2714.352 227.353)">
        <path id="total" d="M1.428-78.795v-3.014H4.353v-4.107H7.9v4.107h3.9v3.014H7.9v6.205a3.088,3.088,0,0,0,.4,1.684,1.746,1.746,0,0,0,1.581.621,5.739,5.739,0,0,0,1.034-.1,2.167,2.167,0,0,0,.886-.34v2.984a4.562,4.562,0,0,1-1.374.369,11.512,11.512,0,0,1-1.433.1,7.255,7.255,0,0,1-2.32-.31,3.06,3.06,0,0,1-1.418-.946,3.59,3.59,0,0,1-.709-1.581,11.075,11.075,0,0,1-.192-2.187v-6.5ZM11.8-74.717a7.5,7.5,0,0,1,.606-3.058,7.151,7.151,0,0,1,1.64-2.349A7.229,7.229,0,0,1,16.5-81.632a8.513,8.513,0,0,1,3.014-.532,8.513,8.513,0,0,1,3.014.532,7.229,7.229,0,0,1,2.452,1.507,7.151,7.151,0,0,1,1.64,2.349,7.5,7.5,0,0,1,.606,3.058,7.5,7.5,0,0,1-.606,3.058,7.151,7.151,0,0,1-1.64,2.349A7.229,7.229,0,0,1,22.525-67.8a8.512,8.512,0,0,1-3.014.532A8.512,8.512,0,0,1,16.5-67.8a7.229,7.229,0,0,1-2.452-1.507,7.151,7.151,0,0,1-1.64-2.349A7.5,7.5,0,0,1,11.8-74.717Zm3.546,0a4.613,4.613,0,0,0,.281,1.6,4,4,0,0,0,.827,1.359,4.122,4.122,0,0,0,1.315.946,4.115,4.115,0,0,0,1.743.355,4.115,4.115,0,0,0,1.743-.355,4.122,4.122,0,0,0,1.315-.946,4,4,0,0,0,.827-1.359,4.613,4.613,0,0,0,.281-1.6,4.613,4.613,0,0,0-.281-1.6,4,4,0,0,0-.827-1.359,4.121,4.121,0,0,0-1.315-.946,4.114,4.114,0,0,0-1.743-.355,4.114,4.114,0,0,0-1.743.355,4.121,4.121,0,0,0-1.315.946,4,4,0,0,0-.827,1.359A4.613,4.613,0,0,0,15.345-74.717ZM26.81-78.795v-3.014h2.925v-4.107h3.546v4.107h3.9v3.014h-3.9v6.205a3.088,3.088,0,0,0,.4,1.684,1.746,1.746,0,0,0,1.581.621,5.739,5.739,0,0,0,1.034-.1,2.167,2.167,0,0,0,.886-.34v2.984a4.562,4.562,0,0,1-1.374.369,11.512,11.512,0,0,1-1.433.1,7.255,7.255,0,0,1-2.32-.31,3.06,3.06,0,0,1-1.418-.946,3.59,3.59,0,0,1-.709-1.581,11.075,11.075,0,0,1-.192-2.187v-6.5Zm19.945,9.219h-.089a4.565,4.565,0,0,1-1.95,1.758,6.119,6.119,0,0,1-2.6.547,6.9,6.9,0,0,1-1.906-.266,5.162,5.162,0,0,1-1.655-.8,4.1,4.1,0,0,1-1.167-1.33,3.771,3.771,0,0,1-.443-1.862,4.29,4.29,0,0,1,.414-1.965,4.036,4.036,0,0,1,1.108-1.359,5.615,5.615,0,0,1,1.61-.872,11.032,11.032,0,0,1,1.906-.488,16.9,16.9,0,0,1,1.994-.207q1-.044,1.891-.044h.886v-.384a2.3,2.3,0,0,0-.916-1.994A3.874,3.874,0,0,0,43.5-79.5a5.487,5.487,0,0,0-2.1.4,5.311,5.311,0,0,0-1.684,1.078l-1.862-1.862a6.873,6.873,0,0,1,2.763-1.743,10.172,10.172,0,0,1,3.265-.532,8.221,8.221,0,0,1,2.541.34,5.591,5.591,0,0,1,1.714.872,3.854,3.854,0,0,1,1.049,1.226,5.693,5.693,0,0,1,.532,1.4,7.676,7.676,0,0,1,.192,1.374q.03.665.03,1.167v8.155H46.754Zm-.207-4.4h-.739q-.739,0-1.655.059a8.682,8.682,0,0,0-1.729.281,3.953,3.953,0,0,0-1.374.65,1.419,1.419,0,0,0-.561,1.2,1.51,1.51,0,0,0,.222.842,2.007,2.007,0,0,0,.576.576,2.412,2.412,0,0,0,.8.34,3.889,3.889,0,0,0,.886.1,3.686,3.686,0,0,0,2.7-.872,3.214,3.214,0,0,0,.872-2.379Zm5.2-15.985h3.546v22.338H51.748Z" transform="translate(-1.428 114.126)"/>
        <path id="care" d="M6.176-21.3a2.235,2.235,0,0,0-.513-.408,1.1,1.1,0,0,0-.548-.152,1.625,1.625,0,0,0-.689.14,1.628,1.628,0,0,0-.519.373,1.581,1.581,0,0,0-.327.537,1.822,1.822,0,0,0-.111.63,1.822,1.822,0,0,0,.111.63,1.581,1.581,0,0,0,.327.537,1.628,1.628,0,0,0,.519.373,1.625,1.625,0,0,0,.689.14,1.386,1.386,0,0,0,.607-.134,1.32,1.32,0,0,0,.478-.391l.934,1a2.156,2.156,0,0,1-.484.362,3.3,3.3,0,0,1-.554.245,3.383,3.383,0,0,1-.537.134,2.88,2.88,0,0,1-.443.041,3.362,3.362,0,0,1-1.19-.21,2.855,2.855,0,0,1-.969-.6,2.824,2.824,0,0,1-.648-.928,2.962,2.962,0,0,1-.239-1.208,2.962,2.962,0,0,1,.239-1.208,2.824,2.824,0,0,1,.648-.928,2.855,2.855,0,0,1,.969-.6,3.362,3.362,0,0,1,1.19-.21,3.048,3.048,0,0,1,1.079.2,2.457,2.457,0,0,1,.951.648Zm4.481,3.151h-.035a1.8,1.8,0,0,1-.77.694,2.417,2.417,0,0,1-1.027.216,2.727,2.727,0,0,1-.753-.105,2.039,2.039,0,0,1-.654-.315,1.619,1.619,0,0,1-.461-.525,1.489,1.489,0,0,1-.175-.735,1.694,1.694,0,0,1,.163-.776,1.594,1.594,0,0,1,.438-.537,2.218,2.218,0,0,1,.636-.344,4.357,4.357,0,0,1,.753-.193,6.674,6.674,0,0,1,.788-.082q.4-.018.747-.018h.35v-.152a.91.91,0,0,0-.362-.788,1.53,1.53,0,0,0-.922-.263,2.167,2.167,0,0,0-.829.158,2.1,2.1,0,0,0-.665.426l-.735-.735a2.715,2.715,0,0,1,1.091-.689,4.017,4.017,0,0,1,1.29-.21,3.247,3.247,0,0,1,1,.134,2.208,2.208,0,0,1,.677.344,1.522,1.522,0,0,1,.414.484,2.248,2.248,0,0,1,.21.554,3.032,3.032,0,0,1,.076.543q.012.263.012.461v3.221h-1.26Zm-.082-1.739h-.292q-.292,0-.654.023a3.429,3.429,0,0,0-.683.111A1.561,1.561,0,0,0,8.4-19.5a.561.561,0,0,0-.222.473.6.6,0,0,0,.088.333.793.793,0,0,0,.228.228.953.953,0,0,0,.315.134,1.536,1.536,0,0,0,.35.041,1.456,1.456,0,0,0,1.068-.344,1.269,1.269,0,0,0,.344-.939Zm2.031-3.093h1.4v.887h.023a1.76,1.76,0,0,1,.665-.759,1.84,1.84,0,0,1,.992-.268,1.338,1.338,0,0,1,.251.023q.123.023.251.058v1.354q-.175-.047-.344-.076a1.955,1.955,0,0,0-.333-.029,1.5,1.5,0,0,0-.788.181,1.435,1.435,0,0,0-.455.414,1.378,1.378,0,0,0-.21.467,1.76,1.76,0,0,0-.053.35v3h-1.4Zm4.633,3.291a1.422,1.422,0,0,0,.49.98,1.534,1.534,0,0,0,1.015.35,1.671,1.671,0,0,0,.881-.216,2.442,2.442,0,0,0,.624-.543l1,.759a2.844,2.844,0,0,1-1.1.864,3.232,3.232,0,0,1-1.272.257,3.362,3.362,0,0,1-1.19-.21,2.855,2.855,0,0,1-.969-.6,2.824,2.824,0,0,1-.648-.928,2.963,2.963,0,0,1-.239-1.208,2.963,2.963,0,0,1,.239-1.208,2.824,2.824,0,0,1,.648-.928,2.855,2.855,0,0,1,.969-.6,3.362,3.362,0,0,1,1.19-.21,2.721,2.721,0,0,1,1.068.2,2.29,2.29,0,0,1,.829.589,2.722,2.722,0,0,1,.537.951,4.035,4.035,0,0,1,.193,1.3v.385Zm2.871-1.05a1.319,1.319,0,0,0-.385-.974,1.445,1.445,0,0,0-1.039-.356,1.361,1.361,0,0,0-1,.362,1.615,1.615,0,0,0-.449.969Z" transform="translate(28.349 47.784)" fill="#166e3b"/>
        <path id="MOBILITY" d="M1.558-13.71h.906l.892,2.34.9-2.34h.9v3.34H4.587v-2.774H4.577L3.563-10.369H3.148L2.134-13.143H2.124v2.774H1.558Zm7.949,1.684a1.934,1.934,0,0,1,.132-.729,1.635,1.635,0,0,1,.366-.559,1.6,1.6,0,0,1,.557-.356,1.952,1.952,0,0,1,.71-.125,1.984,1.984,0,0,1,.717.116,1.567,1.567,0,0,1,.561.351,1.623,1.623,0,0,1,.368.557,1.916,1.916,0,0,1,.132.727,1.854,1.854,0,0,1-.132.712,1.634,1.634,0,0,1-.368.552,1.681,1.681,0,0,1-.561.361,1.986,1.986,0,0,1-.717.134,1.952,1.952,0,0,1-.71-.125,1.62,1.62,0,0,1-.557-.354,1.626,1.626,0,0,1-.366-.55A1.854,1.854,0,0,1,9.507-12.025Zm.623-.038a1.436,1.436,0,0,0,.083.5,1.163,1.163,0,0,0,.234.392,1.087,1.087,0,0,0,.361.259,1.133,1.133,0,0,0,.469.094,1.149,1.149,0,0,0,.472-.094,1.08,1.08,0,0,0,.363-.259,1.163,1.163,0,0,0,.234-.392,1.436,1.436,0,0,0,.083-.5,1.3,1.3,0,0,0-.083-.467,1.157,1.157,0,0,0-.234-.38,1.068,1.068,0,0,0-.363-.255,1.174,1.174,0,0,0-.472-.092,1.158,1.158,0,0,0-.469.092,1.074,1.074,0,0,0-.361.255,1.157,1.157,0,0,0-.234.38A1.3,1.3,0,0,0,10.13-12.063Zm7.261-1.646h1.3a1.569,1.569,0,0,1,.373.045.955.955,0,0,1,.328.146.782.782,0,0,1,.234.262.782.782,0,0,1,.09.387.685.685,0,0,1-.16.467.892.892,0,0,1-.42.264v.009a.864.864,0,0,1,.29.087.769.769,0,0,1,.229.175.806.806,0,0,1,.149.245.818.818,0,0,1,.054.3.875.875,0,0,1-.109.455.861.861,0,0,1-.285.293,1.221,1.221,0,0,1-.406.158,2.3,2.3,0,0,1-.465.047h-1.2Zm.594,1.359h.543a.719.719,0,0,0,.446-.116.367.367,0,0,0,.149-.3.366.366,0,0,0-.153-.323.886.886,0,0,0-.493-.106h-.491Zm0,1.472h.547a2.248,2.248,0,0,0,.243-.014.732.732,0,0,0,.238-.066.47.47,0,0,0,.179-.149.435.435,0,0,0,.071-.262.394.394,0,0,0-.172-.368,1.069,1.069,0,0,0-.535-.1h-.571Zm6.223-2.831H24.8v3.34h-.594Zm5.1,0H29.9v2.8h1.42v.538H29.308Zm6.209,0h.594v3.34h-.594Zm5.784.538H40.276v-.538h2.642v.538H41.895v2.8H41.3ZM47.914-11.8,46.66-13.71H47.4l.821,1.33.83-1.33h.708L48.509-11.8v1.429h-.594Z" transform="translate(1.932 62.6)"/>
        <circle id="Ellipse_15" data-name="Ellipse 15" cx="14.354" cy="14.354" r="14.354" transform="translate(2.864 0)" fill="#2ecb70"/>
        <circle id="Ellipse_16" data-name="Ellipse 16" cx="13.18" cy="13.18" r="13.18" transform="translate(4.037 1.173)" fill="#fff"/>
        <g id="Group_26" data-name="Group 26" transform="translate(3.79 7.401)">
          <path id="Path_30" data-name="Path 30" d="M62.466,346.749H59.5l.6-1.953a.266.266,0,0,1,.254-.187h1.25a.266.266,0,0,1,.254.187Z" transform="translate(-56.24 -344.609)" fill="#fffbeb"/>
          <path id="Path_31" data-name="Path 31" d="M70.651,364.3v2.55H48.378q-.283-.34-.543-.7-.117-.16-.228-.325c-.05-.075-.1-.149-.15-.225a13.222,13.222,0,0,1-.745-1.3q-.117-.234-.223-.475v0a13.053,13.053,0,0,1-.909-2.875c-.03-.156-.058-.312-.081-.47q-.089-.569-.127-1.154-.028-.432-.029-.872a13.118,13.118,0,0,1,.617-3.987q.162-.509.364-1h9.743a2.513,2.513,0,0,1,1.846.808l4.416,4.778a1.451,1.451,0,0,0,.6.391l6.517,1.16a.913.913,0,0,1,.605.688l.03.151.357,1.8.008.043.073.368.035.175.02.1Z" transform="translate(-45.34 -351.428)" fill="#2ecb70"/>
          <path id="Path_32" data-name="Path 32" d="M61.05,362.665H71.566a.214.214,0,0,0,.157-.359l-4.094-4.43a.213.213,0,0,0-.157-.069H59.718a.214.214,0,0,0-.2.276l1.331,4.431A.214.214,0,0,0,61.05,362.665Z" transform="translate(-56.243 -354.77)" fill="#39375e"/>
          <path id="Path_33" data-name="Path 33" d="M62.384,362.514l-1.332-4.43a.214.214,0,0,1,.205-.276H59.718a.214.214,0,0,0-.2.276l1.331,4.43a.214.214,0,0,0,.205.153h1.538A.214.214,0,0,1,62.384,362.514Z" transform="translate(-56.243 -354.771)" fill="#272749"/>
          <path id="Path_34" data-name="Path 34" d="M48.668,362.665H45.363q-.028-.432-.029-.872a13.117,13.117,0,0,1,.617-3.987h1.386a.215.215,0,0,1,.205.152l1.332,4.43a.214.214,0,0,1-.205.276Z" transform="translate(-45.334 -354.77)" fill="#39375e"/>
          <path id="Path_35" data-name="Path 35" d="M74.483,398.953v1.527H51.439c-.05-.075-.1-.149-.15-.225a13.229,13.229,0,0,1-.745-1.3q-.117-.234-.223-.475H74.39l.02.1Z" transform="translate(-49.173 -386.081)" fill="#22b25c"/>
          <g id="Group_24" data-name="Group 24" transform="translate(0.603 9.05)">
            <rect id="Rectangle_49" data-name="Rectangle 49" width="1.912" height="1.911" transform="translate(1.546)" fill="#fffbeb"/>
            <rect id="Rectangle_50" data-name="Rectangle 50" width="1.912" height="1.911" transform="translate(5.372)" fill="#fffbeb"/>
            <rect id="Rectangle_51" data-name="Rectangle 51" width="1.912" height="1.911" transform="translate(9.197)" fill="#fffbeb"/>
            <rect id="Rectangle_52" data-name="Rectangle 52" width="1.912" height="1.911" transform="translate(13.022)" fill="#fffbeb"/>
            <path id="Path_36" data-name="Path 36" d="M49.5,392.236v1.912h-.778q-.117-.234-.223-.475v0a12.857,12.857,0,0,1-.545-1.434Z" transform="translate(-47.953 -390.325)" fill="#fffbeb"/>
            <rect id="Rectangle_53" data-name="Rectangle 53" width="1.913" height="1.911" transform="translate(3.459 1.911)" fill="#fffbeb"/>
            <rect id="Rectangle_54" data-name="Rectangle 54" width="1.913" height="1.911" transform="translate(7.284 1.911)" fill="#fffbeb"/>
            <rect id="Rectangle_55" data-name="Rectangle 55" width="1.913" height="1.911" transform="translate(11.109 1.911)" fill="#fffbeb"/>
          </g>
          <g id="Group_25" data-name="Group 25" transform="translate(1.148 12.394)">
            <path id="Path_37" data-name="Path 37" d="M51.322,398.467v.477h-.778q-.117-.234-.223-.475v0Z" transform="translate(-50.321 -398.467)" fill="#d8e0c9"/>
            <rect id="Rectangle_56" data-name="Rectangle 56" width="1.913" height="0.477" transform="translate(2.914)" fill="#d8e0c9"/>
            <rect id="Rectangle_57" data-name="Rectangle 57" width="1.913" height="0.477" transform="translate(6.739)" fill="#d8e0c9"/>
            <rect id="Rectangle_58" data-name="Rectangle 58" width="1.913" height="0.477" transform="translate(10.564)" fill="#d8e0c9"/>
          </g>
          <path id="Path_38" data-name="Path 38" d="M144.58,389.959h.618l-.365-1.841h-2.208a.19.19,0,0,0-.182.244h0A2.23,2.23,0,0,0,144.58,389.959Z" transform="translate(-120.089 -378.105)" fill="#fffbeb"/>
          <path id="Path_39" data-name="Path 39" d="M143.483,388.362h0a.19.19,0,0,1,.182-.244h-1.041a.19.19,0,0,0-.182.244h0a2.23,2.23,0,0,0,2.138,1.6h.618l-.008-.042A2.23,2.23,0,0,1,143.483,388.362Z" transform="translate(-120.089 -378.105)" fill="#d8e0c9"/>
          <path id="Path_40" data-name="Path 40" d="M75.791,400.874v1.186c0,.184-.111.333-.248.333H52.415q-.117-.16-.228-.325c-.05-.074-.1-.149-.15-.225a13.253,13.253,0,0,1-.745-1.3h24.25C75.68,400.542,75.791,400.691,75.791,400.874Z" transform="translate(-49.921 -387.67)" fill="#fffbeb"/>
          <path id="Path_41" data-name="Path 41" d="M78.661,406.541v1.3c0,.19-.115.345-.257.345H56.115c-.079-.082-.157-.165-.234-.248l0,0-.111-.122h0c-.109-.121-.217-.244-.322-.37q-.283-.34-.543-.7-.117-.16-.228-.325c-.05-.074-.1-.149-.15-.225H78.4C78.546,406.2,78.661,406.351,78.661,406.541Z" transform="translate(-52.409 -392.023)" fill="#d8e0c9"/>
          <circle id="Ellipse_17" data-name="Ellipse 17" cx="3.803" cy="3.803" r="3.803" transform="translate(15.599 11.575)" fill="#39375e"/>
          <path id="Path_42" data-name="Path 42" d="M117.542,404.641a3.8,3.8,0,0,1-2.98-6.163,3.8,3.8,0,1,0,5.341,5.341A3.785,3.785,0,0,1,117.542,404.641Z" transform="translate(-97.52 -386.081)" fill="#272749"/>
          <circle id="Ellipse_18" data-name="Ellipse 18" cx="2.014" cy="2.014" r="2.014" transform="translate(17.387 13.364)" fill="#c7ceb6"/>
          <path id="Path_43" data-name="Path 43" d="M123.373,404.2h0a.359.359,0,0,1-.312-.179l-.426-.735a2.015,2.015,0,0,0-1.134,1.133l.735.426a.36.36,0,0,1,.179.312v0a.36.36,0,0,1-.179.312l-.735.426a2.015,2.015,0,0,0,1.134,1.134l.426-.735a.36.36,0,0,1,.312-.179h0a.36.36,0,0,1,.312.179l.427.735a2.015,2.015,0,0,0,1.133-1.134l-.735-.426a.359.359,0,0,1-.179-.312v0a.36.36,0,0,1,.179-.312l.735-.426a2.016,2.016,0,0,0-1.133-1.134l-.427.735A.358.358,0,0,1,123.373,404.2Z" transform="translate(-103.969 -389.785)" fill="#fffbeb"/>
          <circle id="Ellipse_19" data-name="Ellipse 19" cx="1.32" cy="1.32" r="1.32" transform="translate(18.081 14.058)" fill="#d8e0c9"/>
          <circle id="Ellipse_20" data-name="Ellipse 20" cx="0.72" cy="0.72" r="0.72" transform="translate(18.681 14.658)" fill="#fffbeb"/>
          <path id="Path_44" data-name="Path 44" d="M68.03,382.243H66.677a.763.763,0,0,1-.763-.763h0a.242.242,0,0,1,.242-.242h2.4a.242.242,0,0,1,.242.242h0A.763.763,0,0,1,68.03,382.243Z" transform="translate(-61.178 -372.808)" fill="#39375e"/>
          <path id="Path_45" data-name="Path 45" d="M66.831,381.478h0a.242.242,0,0,1,.242-.242h-.917a.242.242,0,0,0-.242.242h0a.763.763,0,0,0,.763.763h.917A.763.763,0,0,1,66.831,381.478Z" transform="translate(-61.178 -372.808)" fill="#272749"/>
        </g>
        <rect id="Rectangle_59" data-name="Rectangle 59" width="9.076" height="2.584" transform="translate(44.924 44.302)" fill="#fff"/>
        <path id="Path_46" data-name="Path 46" d="M278.486,357.041h-9.6l-.079-3.268h9.605Z" transform="translate(-249.026 -321.48)"/>
      </g>
    </g>
  </g>
</svg>
